<svg xmlns="http://www.w3.org/2000/svg" width="242.062" height="57.64" viewBox="0 0 242.062 57.64">
  <defs>
    <style>
      .cls-1 {
        fill: #5f9d7b;
        fill-rule: evenodd;
      }
    </style>
  </defs>
  <path id="ENTRY" class="cls-1" d="M460.957,10014.3a1.588,1.588,0,0,0,1.52,1.6h32.561a1.588,1.588,0,0,0,1.52-1.6v-6.5a1.5,1.5,0,0,0-1.52-1.5H471.357v-14.04h19.761a1.519,1.519,0,0,0,1.52-1.52v-6.64a1.574,1.574,0,0,0-1.52-1.52H471.357v-13.12h23.681a1.519,1.519,0,0,0,1.52-1.52v-6.56a1.519,1.519,0,0,0-1.52-1.52H462.477a1.519,1.519,0,0,0-1.52,1.52v52.92Zm47.04,0a1.647,1.647,0,0,0,1.52,1.6h7.28a1.588,1.588,0,0,0,1.52-1.6v-34.36h0.08l33.441,36.76h1.92a1.556,1.556,0,0,0,1.52-1.5v-53.82a1.574,1.574,0,0,0-1.52-1.52H546.4a1.519,1.519,0,0,0-1.52,1.52v33.04H544.8l-33.281-35.36h-2a1.5,1.5,0,0,0-1.52,1.44v53.8Zm69.36,0a1.647,1.647,0,0,0,1.52,1.6h7.44a1.647,1.647,0,0,0,1.52-1.6v-44.84h12.24a1.519,1.519,0,0,0,1.52-1.52v-6.56a1.519,1.519,0,0,0-1.52-1.52H565.116a1.519,1.519,0,0,0-1.52,1.52v6.56a1.519,1.519,0,0,0,1.52,1.52h12.241v44.84Zm32.559,0a1.588,1.588,0,0,0,1.52,1.6h7.36a1.647,1.647,0,0,0,1.52-1.6v-20.36h8.88l10.64,21.16a1.3,1.3,0,0,0,1.281.8h8.4a1.561,1.561,0,0,0,1.36-2.4l-10.961-20.28c6.961-2.8,11.841-8.8,11.841-16.16a17.329,17.329,0,0,0-17.441-17.2h-22.88a1.519,1.519,0,0,0-1.52,1.52v52.92Zm10.48-28.92v-15.92h13.04a7.96,7.96,0,0,1,7.921,7.76,8.149,8.149,0,0,1-7.921,8.16H620.4Zm53.519,28.92a1.588,1.588,0,0,0,1.52,1.6h7.36a1.647,1.647,0,0,0,1.52-1.6v-25.48l18.481-26.64a1.481,1.481,0,0,0-1.281-2.32h-8.24a1.59,1.59,0,0,0-1.28.72l-12.8,18.4-12.8-18.4a1.59,1.59,0,0,0-1.28-.72h-8.161a1.481,1.481,0,0,0-1.28,2.32l18.241,26.72v25.4Z" transform="translate(-460.969 -9959.06)"/>
</svg>
