<svg xmlns="http://www.w3.org/2000/svg" width="230.532" height="18.719" viewBox="0 0 230.532 18.719">
  <defs>
    <style>
      .cls-1 {
        fill: #5f9d7b;
        fill-rule: evenodd;
      }
    </style>
  </defs>
  <path id="PEOPLE_WORKS" data-name="PEOPLE &amp; WORKS" class="cls-1" d="M39.4,873.843a0.494,0.494,0,0,0,.494.494h2.39a0.511,0.511,0,0,0,.494-0.494v-6.111h3.248a5.8,5.8,0,1,0-.026-11.6H39.9a0.494,0.494,0,0,0-.494.494v17.214Zm3.377-9.283v-5.227h3.014a2.593,2.593,0,0,1,2.676,2.523,2.679,2.679,0,0,1-2.676,2.7H42.779Zm13.3,9.283a0.494,0.494,0,0,0,.494.494H67.147a0.493,0.493,0,0,0,.494-0.494v-2.132a0.493,0.493,0,0,0-.494-0.494h-7.69v-4.551h6.417a0.494,0.494,0,0,0,.494-0.494v-2.158a0.511,0.511,0,0,0-.494-0.494H59.456v-4.265h7.69a0.493,0.493,0,0,0,.494-0.494v-2.132a0.493,0.493,0,0,0-.494-0.494H56.573a0.494,0.494,0,0,0-.494.494v17.214Zm15.274-8.581a9.34,9.34,0,1,0,9.327-9.387A9.274,9.274,0,0,0,71.353,865.262Zm3.378,0a5.962,5.962,0,1,1,5.95,5.955A6.013,6.013,0,0,1,74.731,865.262Zm20,8.581a0.493,0.493,0,0,0,.494.494h2.39a0.511,0.511,0,0,0,.494-0.494v-6.111h3.248a5.8,5.8,0,1,0-.026-11.6H95.227a0.493,0.493,0,0,0-.494.494v17.214Zm3.377-9.283v-5.227h3.014a2.593,2.593,0,0,1,2.676,2.523,2.679,2.679,0,0,1-2.676,2.7H98.11Zm13.3,9.283a0.494,0.494,0,0,0,.494.494h9.509a0.493,0.493,0,0,0,.493-0.494v-2.132a0.493,0.493,0,0,0-.493-0.494h-6.625V856.629a0.511,0.511,0,0,0-.494-0.494H111.9a0.494,0.494,0,0,0-.494.494v17.214Zm14.417,0a0.494,0.494,0,0,0,.494.494H136.9a0.494,0.494,0,0,0,.494-0.494v-2.132a0.494,0.494,0,0,0-.494-0.494h-7.69v-4.551h6.417a0.494,0.494,0,0,0,.494-0.494v-2.158a0.511,0.511,0,0,0-.494-0.494h-6.417v-4.265h7.69a0.494,0.494,0,0,0,.494-0.494v-2.132a0.494,0.494,0,0,0-.494-0.494H126.321a0.494,0.494,0,0,0-.494.494v17.214ZM149,869.708c0,2.653,2.182,4.889,5.482,4.889a7.461,7.461,0,0,0,5.663-2.21l1.871,1.9a0.757,0.757,0,0,0,1.143.078l1.065-1.092c0.624-.6.364-0.884,0.052-1.2l-2.312-2.184a17.765,17.765,0,0,0,1.611-4.135,0.707,0.707,0,0,0-.442-1.014l-1.429-.416c-0.6-.182-0.753.1-0.857,0.65a11.42,11.42,0,0,1-.935,2.886l-2.988-3.016c0.519-.468,3.169-2.054,3.169-4.733,0-2.34-2-4.238-4.91-4.238-3.273,0-4.91,2.236-4.91,4.212a5.173,5.173,0,0,0,1.767,3.745l0.545,0.6v0.052C152.116,864.768,149,866.276,149,869.708ZM155.078,863l-0.571-.572c-0.78-.832-1.377-1.431-1.351-2.341a1.779,1.779,0,0,1,1.922-1.768,2.066,2.066,0,0,1,2.209,1.95C157.287,861.882,155.468,862.766,155.078,863Zm-2.988,6.37a3.729,3.729,0,0,1,2.209-3.2l3.871,4.109a4.262,4.262,0,0,1-3.352,1.534A2.532,2.532,0,0,1,152.09,869.37Zm26.887,4.863a0.5,0.5,0,0,0,.467.364h0.416a0.442,0.442,0,0,0,.442-0.286l4.6-11.779h0.13l4.651,11.779a0.442,0.442,0,0,0,.441.286h0.416a0.5,0.5,0,0,0,.468-0.364l4.91-17.474a0.453,0.453,0,0,0-.468-0.624h-2.39a0.533,0.533,0,0,0-.467.364l-2.65,10.375h-0.1l-4.157-10.713a0.42,0.42,0,0,0-.442-0.286H184.77a0.419,0.419,0,0,0-.441.286L180.2,866.874h-0.1l-2.7-10.375a0.534,0.534,0,0,0-.468-0.364h-2.39a0.453,0.453,0,0,0-.467.624Zm19.924-8.971a9.34,9.34,0,1,0,9.327-9.387A9.274,9.274,0,0,0,198.9,865.262Zm3.377,0a5.963,5.963,0,1,1,5.95,5.955A6.013,6.013,0,0,1,202.278,865.262Zm20,8.581a0.494,0.494,0,0,0,.494.494h2.39a0.511,0.511,0,0,0,.494-0.494v-6.631h2.884L232,874.1a0.446,0.446,0,0,0,.416.234h2.728a0.492,0.492,0,0,0,.441-0.754l-3.559-6.605a5.737,5.737,0,0,0,3.845-5.252,5.63,5.63,0,0,0-5.664-5.591h-7.43a0.494,0.494,0,0,0-.494.494v17.214Zm3.4-9.413v-5.175h4.235a2.586,2.586,0,0,1,2.572,2.523,2.647,2.647,0,0,1-2.572,2.652h-4.235Zm15.2,9.283a0.616,0.616,0,0,0,.623.624h2.287a0.632,0.632,0,0,0,.623-0.624v-7.931l6.781,8.373a0.564,0.564,0,0,0,.468.182h2.831a0.57,0.57,0,0,0,.468-0.91l-7.274-8.711,6.78-7.645a0.553,0.553,0,0,0-.415-0.936h-2.6a0.622,0.622,0,0,0-.494.26l-6.547,7.385v-7.021a0.632,0.632,0,0,0-.623-0.624H241.5a0.616,0.616,0,0,0-.623.624v16.954Zm17.378-1.144a8.358,8.358,0,0,0,5.716,2.028c3.663,0,5.976-2.47,5.976-5.149,0-3.354-2.91-4.862-5.43-5.876-2.1-.858-3.066-1.69-3.066-2.913a2.069,2.069,0,0,1,2.286-1.82,8.548,8.548,0,0,1,3.612,1.43,0.683,0.683,0,0,0,.909-0.312l0.987-1.482a0.644,0.644,0,0,0-.156-0.858,9.14,9.14,0,0,0-5.2-1.742c-4.131,0-5.845,2.678-5.845,4.992,0,3.069,2.442,4.629,4.884,5.617,2.182,0.884,3.3,1.794,3.3,3.12a2.17,2.17,0,0,1-2.364,2c-1.688,0-3.793-1.534-3.923-1.612a0.6,0.6,0,0,0-.883.182l-0.935,1.612A0.514,0.514,0,0,0,258.258,872.569Z" transform="translate(-39.406 -855.875)"/>
</svg>
