<svg xmlns="http://www.w3.org/2000/svg" width="162.094" height="18.69" viewBox="0 0 162.094 18.69">
  <defs>
    <style>
      .cls-1 {
        fill: #5f9d7b;
        fill-rule: evenodd;
      }
    </style>
  </defs>
  <path id="RECRUITING" class="cls-1" d="M38.932,1156.04a0.5,0.5,0,0,0,.494.5h2.391a0.517,0.517,0,0,0,.494-0.5v-6.63H45.2l3.456,6.89a0.439,0.439,0,0,0,.416.24H51.8a0.5,0.5,0,0,0,.442-0.76l-3.56-6.6a5.737,5.737,0,0,0,3.846-5.25,5.633,5.633,0,0,0-5.665-5.59H39.426a0.5,0.5,0,0,0-.494.5v17.2Zm3.4-9.41v-5.17h4.236a2.59,2.59,0,0,1,2.573,2.52,2.643,2.643,0,0,1-2.573,2.65H42.337Zm15.211,9.41a0.5,0.5,0,0,0,.494.5H68.619a0.5,0.5,0,0,0,.494-0.5v-2.13a0.49,0.49,0,0,0-.494-0.49H60.926v-4.55h6.419a0.494,0.494,0,0,0,.494-0.49v-2.16a0.517,0.517,0,0,0-.494-0.5H60.926v-4.26h7.692a0.49,0.49,0,0,0,.494-0.49v-2.13a0.5,0.5,0,0,0-.494-0.5H58.042a0.5,0.5,0,0,0-.494.5v17.2Zm15.185-8.57a9.322,9.322,0,0,0,9.381,9.33,8.908,8.908,0,0,0,6.315-2.53,0.493,0.493,0,0,0,.026-0.7l-1.611-1.66a0.476,0.476,0,0,0-.65,0,6.256,6.256,0,0,1-3.976,1.48,6.034,6.034,0,0,1-.026-12.06,6.111,6.111,0,0,1,4,1.54,0.427,0.427,0,0,0,.65,0l1.585-1.64a0.486,0.486,0,0,0-.026-0.73,8.82,8.82,0,0,0-6.289-2.42A9.366,9.366,0,0,0,72.733,1147.47Zm20.409,8.57a0.5,0.5,0,0,0,.494.5h2.391a0.517,0.517,0,0,0,.494-0.5v-6.63h2.885l3.456,6.89a0.439,0.439,0,0,0,.416.24h2.729a0.5,0.5,0,0,0,.442-0.76l-3.561-6.6a5.737,5.737,0,0,0,3.846-5.25,5.632,5.632,0,0,0-5.665-5.59H93.636a0.5,0.5,0,0,0-.494.5v17.2Zm3.4-9.41v-5.17h4.236a2.59,2.59,0,0,1,2.573,2.52,2.643,2.643,0,0,1-2.573,2.65H96.546Zm14.952,3.02a7.238,7.238,0,0,0,14.475,0v-10.81a0.517,0.517,0,0,0-.494-0.5H123.01a0.5,0.5,0,0,0-.494.5v10.65a3.784,3.784,0,1,1-7.562-.02v-10.63a0.5,0.5,0,0,0-.494-0.5h-2.469a0.517,0.517,0,0,0-.493.5v10.81Zm20.253,6.39a0.517,0.517,0,0,0,.494.5h2.417a0.517,0.517,0,0,0,.494-0.5v-17.2a0.517,0.517,0,0,0-.494-0.5h-2.417a0.517,0.517,0,0,0-.494.5v17.2Zm11.881,0a0.517,0.517,0,0,0,.494.5h2.417a0.517,0.517,0,0,0,.493-0.5v-14.58h3.976a0.49,0.49,0,0,0,.494-0.49v-2.13a0.5,0.5,0,0,0-.494-0.5H139.656a0.5,0.5,0,0,0-.494.5v2.13a0.49,0.49,0,0,0,.494.49h3.976v14.58Zm11.883,0a0.517,0.517,0,0,0,.494.5h2.416a0.517,0.517,0,0,0,.494-0.5v-17.2a0.517,0.517,0,0,0-.494-0.5h-2.416a0.517,0.517,0,0,0-.494.5v17.2Zm9.438,0a0.516,0.516,0,0,0,.493.5h2.365a0.5,0.5,0,0,0,.494-0.5v-11.17h0.026l10.863,11.93h0.623a0.491,0.491,0,0,0,.494-0.47v-17.49a0.517,0.517,0,0,0-.494-0.5h-2.39a0.5,0.5,0,0,0-.494.5v10.73h-0.026L166.1,1138.08h-0.65a0.49,0.49,0,0,0-.493.47v17.49Zm20.1-8.57a9.269,9.269,0,0,0,9.33,9.3,13.122,13.122,0,0,0,6.444-1.69,0.508,0.508,0,0,0,.208-0.42v-6.65a0.485,0.485,0,0,0-.467-0.49h-4.99a0.478,0.478,0,0,0-.494.49v2.05a0.474,0.474,0,0,0,.494.47h2.079v2.21a8.088,8.088,0,0,1-3.093.65,5.99,5.99,0,1,1,3.9-10.47,0.44,0.44,0,0,0,.675,0l1.611-1.69a0.506,0.506,0,0,0-.026-0.73,9.812,9.812,0,0,0-6.34-2.42A9.339,9.339,0,0,0,185.051,1147.47Z" transform="translate(-38.938 -1138.09)"/>
</svg>
