<svg xmlns="http://www.w3.org/2000/svg" width="107.344" height="18.719" viewBox="0 0 107.344 18.719">
  <defs>
    <style>
      .cls-1 {
        fill: #5f9d7b;
        fill-rule: evenodd;
      }
    </style>
  </defs>
  <path id="SPECIAL" class="cls-1" d="M41.176,382.907a8.353,8.353,0,0,0,5.715,2.027c3.663,0,5.975-2.468,5.975-5.144,0-3.351-2.909-4.857-5.429-5.87-2.1-.858-3.065-1.689-3.065-2.91a2.069,2.069,0,0,1,2.286-1.818,8.545,8.545,0,0,1,3.611,1.429,0.684,0.684,0,0,0,.909-0.312l0.987-1.481a0.643,0.643,0,0,0-.156-0.857,9.144,9.144,0,0,0-5.2-1.74c-4.13,0-5.845,2.675-5.845,4.987,0,3.065,2.442,4.624,4.883,5.611,2.182,0.883,3.3,1.792,3.3,3.117a2.169,2.169,0,0,1-2.364,2c-1.688,0-3.792-1.532-3.922-1.61a0.6,0.6,0,0,0-.883.182l-0.935,1.61A0.513,0.513,0,0,0,41.176,382.907ZM57.5,384.18a0.493,0.493,0,0,0,.494.494h2.39a0.511,0.511,0,0,0,.494-0.494v-6.1h3.247A5.793,5.793,0,1,0,64.1,366.49H58a0.493,0.493,0,0,0-.494.494v17.2Zm3.377-9.273v-5.221h3.013a2.591,2.591,0,0,1,2.676,2.519,2.678,2.678,0,0,1-2.676,2.7H60.88Zm13.315,9.273a0.493,0.493,0,0,0,.494.494H85.261a0.493,0.493,0,0,0,.493-0.494v-2.13a0.493,0.493,0,0,0-.493-0.493H77.572v-4.546h6.416a0.493,0.493,0,0,0,.494-0.494v-2.156a0.511,0.511,0,0,0-.494-0.493H77.572v-4.26h7.689a0.493,0.493,0,0,0,.493-0.494v-2.13a0.493,0.493,0,0,0-.493-0.494H74.688a0.493,0.493,0,0,0-.494.494v17.2Zm15.185-8.572a9.313,9.313,0,0,0,9.377,9.326,8.92,8.92,0,0,0,6.313-2.52,0.494,0.494,0,0,0,.026-0.7l-1.611-1.663a0.478,0.478,0,0,0-.649,0,6.236,6.236,0,0,1-3.975,1.481,6.031,6.031,0,0,1-.026-12.053,6.146,6.146,0,0,1,4,1.532,0.415,0.415,0,0,0,.649,0l1.585-1.636a0.483,0.483,0,0,0-.026-0.728,8.8,8.8,0,0,0-6.287-2.415A9.357,9.357,0,0,0,89.38,375.608Zm20.409,8.572a0.511,0.511,0,0,0,.493.494H112.7a0.511,0.511,0,0,0,.493-0.494v-17.2a0.511,0.511,0,0,0-.493-0.494h-2.416a0.511,0.511,0,0,0-.493.494v17.2Zm7.515,0.494h2.26a0.782,0.782,0,0,0,.753-0.52l1.273-2.805h7.767l1.273,2.805a0.747,0.747,0,0,0,.753.52h2.26a0.459,0.459,0,0,0,.442-0.676l-8-17.482a0.443,0.443,0,0,0-.442-0.285h-0.259a0.468,0.468,0,0,0-.442.285L116.862,384A0.459,0.459,0,0,0,117.3,384.674Zm5.559-6.208,2.546-5.715h0.078l2.6,5.715h-5.221Zm14.9,5.714a0.494,0.494,0,0,0,.494.494h9.507a0.493,0.493,0,0,0,.493-0.494v-2.13a0.492,0.492,0,0,0-.493-0.493h-6.624V366.984a0.511,0.511,0,0,0-.494-0.494h-2.389a0.494,0.494,0,0,0-.494.494v17.2Z" transform="translate(-40.906 -366.219)"/>
</svg>
